<svg xmlns="http://www.w3.org/2000/svg" version="1.1" xmlns:xlink="http://www.w3.org/1999/xlink" xmlns:svgjs="http://svgjs.dev/svgjs" width="1040" height="560" preserveAspectRatio="none" viewBox="0 0 1040 560"><g mask="url(&quot;#SvgjsMask4410&quot;)" fill="none"><rect width="1040" height="560" x="0" y="0" fill="url(&quot;#SvgjsLinearGradient4411&quot;)"></rect><path d="M96.01 522.81L98.2 522.81L98.2 525L96.01 525z" fill="rgba(252, 94, 93, 1)"></path><path d="M809.83 226.84L819.89 226.84L819.89 278.24L809.83 278.24z" stroke="rgba(252, 94, 93, 1)"></path><path d="M256.29 526.67a9.09 9.09 0 1 0-17.95-2.86z" stroke="rgba(100, 211, 254, 1)"></path><path d="M792.79 280.99L821.51 280.99L821.51 305.19L792.79 305.19z" fill="rgba(100, 211, 254, 1)"></path><path d="M474.57 247.07L494.66 247.07L494.66 284.75L474.57 284.75z" stroke="rgba(8, 194, 20, 1)"></path><path d="M1015.15 209.13a30.44 30.44 0 1 0-60.52 6.6z" fill="rgba(8, 194, 20, 1)"></path><path d="M292.65 365.77L343.9 365.77L343.9 417.02L292.65 417.02z" stroke="rgba(100, 211, 254, 1)"></path><path d="M383.16 92.9L406.19 92.9L406.19 145.48L383.16 145.48z" fill="rgba(255, 219, 11, 0.92)"></path><path d="M503.94 430.88a5.04 5.04 0 1 0-0.5-10.07z" fill="rgba(252, 94, 93, 1)"></path><path d="M519.85 139.97 a41.55 41.55 0 1 0 83.1 0 a41.55 41.55 0 1 0 -83.1 0z" stroke="rgba(8, 194, 20, 1)"></path><path d="M150.16 99.71 a0.65 0.65 0 1 0 1.3 0 a0.65 0.65 0 1 0 -1.3 0z" stroke="rgba(100, 211, 254, 1)"></path><path d="M711.16 374.88 a26.79 26.79 0 1 0 53.58 0 a26.79 26.79 0 1 0 -53.58 0z" fill="rgba(255, 219, 11, 0.92)"></path><path d="M219.62 232.8L270.74 232.8L270.74 283.92L219.62 283.92z" fill="rgba(8, 194, 20, 1)"></path><path d="M73.27 8.28L95.01 8.28L95.01 13.23L73.27 13.23z" fill="rgba(100, 211, 254, 1)"></path><path d="M527.23 283.6L568.15 283.6L568.15 324.52L527.23 324.52z" fill="rgba(252, 94, 93, 1)"></path><path d="M448.99 361.8L455.63 361.8L455.63 368.44L448.99 368.44z" stroke="rgba(100, 211, 254, 1)"></path><path d="M251.67 529.53L293.86 529.53L293.86 571.72L251.67 571.72z" stroke="rgba(100, 211, 254, 1)"></path><path d="M848.68 297.22L902.69 297.22L902.69 325.4L848.68 325.4z" stroke="rgba(255, 219, 11, 0.92)"></path><path d="M426.07 453.39L442.85 453.39L442.85 501.8L426.07 501.8z" stroke="rgba(100, 211, 254, 1)"></path><path d="M930.86 481.52a32.26 32.26 0 1 0 64.16-6.74z" fill="rgba(255, 219, 11, 0.92)"></path><path d="M973 284.34 a48.12 48.12 0 1 0 96.24 0 a48.12 48.12 0 1 0 -96.24 0z" fill="rgba(100, 211, 254, 1)"></path><path d="M705.1 312.44 a39.43 39.43 0 1 0 78.86 0 a39.43 39.43 0 1 0 -78.86 0z" fill="rgba(100, 211, 254, 1)"></path><path d="M1031.27 277.22L1054.27 277.22L1054.27 294.95L1031.27 294.95z" fill="rgba(8, 194, 20, 1)"></path><path d="M72.08 180.26L102.07 180.26L102.07 210.25L72.08 210.25z" stroke="rgba(8, 194, 20, 1)"></path></g><defs><mask id="SvgjsMask4410"><rect width="1040" height="560" fill="#ffffff"></rect></mask><linearGradient x1="88.46%" y1="121.43%" x2="11.54%" y2="-21.43%" gradientUnits="userSpaceOnUse" id="SvgjsLinearGradient4411"><stop stop-color="rgba(245, 246, 246, 1)" offset="0.04"></stop><stop stop-color="rgba(224, 239, 255, 1)" offset="0.47"></stop><stop stop-color="rgba(253, 253, 253, 1)" offset="0.89"></stop></linearGradient></defs></svg>